<svg width="125" height="24" viewBox="0 0 125 24" fill="none" xmlns="http://www.w3.org/2000/svg">
<path d="M7.18984 0.0304956H9.59661V19.0597C9.59661 20.493 8.43892 21.6518 7.00705 21.6518H2.58956C1.15769 21.6518 0 20.493 0 19.0597V16.8335H2.40677V19.0597C2.40677 19.1512 2.49817 19.2122 2.5591 19.2122H7.00705C7.09845 19.2122 7.15938 19.1207 7.15938 19.0597V0.0304956H7.18984ZM39.6965 0C41.1283 0 42.286 1.15883 42.286 2.59212V4.8183H39.8792V2.59212C39.8792 2.50064 39.7878 2.43964 39.7269 2.43964H35.279C35.1876 2.43964 35.1266 2.53113 35.1266 2.59212V19.0597C35.1266 19.1512 35.218 19.2122 35.279 19.2122H39.7269C39.8183 19.2122 39.8792 19.1207 39.8792 19.0597V16.8335H42.286V19.0597C42.286 20.493 41.1283 21.6518 39.6965 21.6518H35.2485C33.8166 21.6518 32.6589 20.493 32.6589 19.0597V2.59212C32.6589 1.15883 33.8166 0 35.2485 0H39.6965ZM73.4522 0.0304956H75.8589V19.0597C75.8589 20.493 74.7012 21.6518 73.2694 21.6518H68.8519C67.42 21.6518 66.2623 20.493 66.2623 19.0597V0.0304956H68.6691V19.0597C68.6691 19.1512 68.7605 19.2122 68.8214 19.2122H73.2694C73.3608 19.2122 73.4217 19.1207 73.4217 19.0597V0.0304956H73.4522ZM51.8826 19.0597V2.59212C51.8826 2.50064 51.974 2.43964 52.035 2.43964H56.4829C56.5743 2.43964 56.6352 2.53113 56.6352 2.59212V19.0597C56.6352 19.1512 56.5438 19.2122 56.4829 19.2122H52.035C51.9436 19.2122 51.8826 19.1512 51.8826 19.0597ZM59.0725 19.0597V2.59212C59.0725 1.15883 57.9148 0 56.4829 0H52.035C50.6031 0 49.4454 1.15883 49.4454 2.59212V19.0597C49.4454 20.493 50.6031 21.6518 52.035 21.6518H56.4829C56.7571 21.6518 57.0313 21.6213 57.275 21.5299L59.7427 24L61.4488 22.2922L58.9811 19.8221C59.0115 19.5781 59.0725 19.3037 59.0725 19.0597ZM89.3856 14.4244H85.5469H85.5165L87.4663 2.43964L89.3856 14.4244ZM85.6383 0.0304956L81.8301 21.6823H84.2979L85.2118 16.5286H85.2727H89.6902H89.7512L90.6651 21.6823H93.1328L89.3246 0.0304956H85.6383ZM23.0319 14.4244H19.1932H19.1628L21.1125 2.43964L23.0319 14.4244ZM19.2846 0.0304956L15.4764 21.6518H17.9441L18.8581 16.5591H18.919H23.3365H23.3975L24.3114 21.6518H26.7791L22.9709 0.0304956H19.2846ZM105.806 9.69759C105.806 10.1855 105.746 10.46 105.624 10.6125C105.502 10.7344 105.197 10.7954 104.71 10.7954H101.389V2.13469H104.71C105.197 2.13469 105.471 2.19568 105.624 2.31766C105.746 2.43964 105.806 2.7446 105.806 3.23253V9.69759ZM108.213 10.094V2.83609C108.213 0.975858 107.269 0.0304956 105.41 0.0304956H98.9822V21.6823H101.389V12.8996H103.491L106.72 21.6823H109.34L105.989 12.8691C107.482 12.7166 108.213 11.7713 108.213 10.094ZM122.562 17.169C122.562 18.3278 121.648 19.2427 120.491 19.2427H117.84V2.47014H120.491C121.648 2.47014 122.562 3.38501 122.562 4.54384V17.169ZM120.491 0.0304956H115.403V21.6823H120.491C122.989 21.6823 125 19.6696 125 17.169V4.54384C125.03 2.0432 122.989 0.0304956 120.491 0.0304956Z" fill="white"/>
</svg>
