<svg width="23" height="23" viewBox="0 0 23 23" fill="none" xmlns="http://www.w3.org/2000/svg">
<path fill-rule="evenodd" clip-rule="evenodd" d="M15.4498 13.5875L22.6123 20.75L20.7498 22.6125L13.5873 15.45C12.2498 16.4125 10.6373 17 8.87476 17C4.38726 17 0.749756 13.3625 0.749756 8.875C0.749756 4.3875 4.38726 0.75 8.87476 0.75C13.3623 0.75 16.9998 4.3875 16.9998 8.875C16.9998 10.6375 16.4123 12.25 15.4498 13.5875ZM8.87476 3.25C5.76226 3.25 3.24976 5.7625 3.24976 8.875C3.24976 11.9875 5.76226 14.5 8.87476 14.5C11.9873 14.5 14.4998 11.9875 14.4998 8.875C14.4998 5.7625 11.9873 3.25 8.87476 3.25Z" fill="white"/>
</svg>
